<svg xmlns="http://www.w3.org/2000/svg" viewBox="0 0 1389.45 500"><defs><style>.cls-1{fill:#f1cbc0;}.cls-2{fill:#eaafa0;}.cls-3{fill:#c93f2d;}.cls-4{fill:#220d09;}.cls-10,.cls-11,.cls-13,.cls-15,.cls-17,.cls-19,.cls-22,.cls-23,.cls-24,.cls-27,.cls-29,.cls-30,.cls-33,.cls-38,.cls-39,.cls-40,.cls-41,.cls-42,.cls-43,.cls-45,.cls-5,.cls-7,.cls-9{fill:none;}.cls-5{stroke:#f4f0d3;}.cls-10,.cls-11,.cls-13,.cls-15,.cls-17,.cls-19,.cls-22,.cls-24,.cls-27,.cls-30,.cls-33,.cls-38,.cls-39,.cls-42,.cls-43,.cls-45,.cls-5,.cls-9{stroke-linecap:round;}.cls-10,.cls-11,.cls-13,.cls-15,.cls-19,.cls-22,.cls-24,.cls-27,.cls-30,.cls-33,.cls-38,.cls-39,.cls-42,.cls-43,.cls-45,.cls-5,.cls-9{stroke-linejoin:round;}.cls-10,.cls-13,.cls-15,.cls-17,.cls-19,.cls-22,.cls-23,.cls-24,.cls-27,.cls-29,.cls-30,.cls-33,.cls-41,.cls-42,.cls-43,.cls-45,.cls-5,.cls-7,.cls-9{stroke-width:1.32px;}.cls-6{fill:#893728;}.cls-10,.cls-7{stroke:#601e19;}.cls-17,.cls-23,.cls-29,.cls-40,.cls-41,.cls-7{stroke-miterlimit:10;}.cls-8{fill:#f4f0d3;}.cls-11,.cls-9{stroke:#893728;}.cls-11{stroke-width:1.21px;}.cls-12{fill:#dd5941;}.cls-13{stroke:#09505b;}.cls-14{fill:#0e7289;}.cls-15{stroke:#a55f38;}.cls-16{fill:#d3824a;}.cls-17{stroke:#af3222;}.cls-18{fill:#eaa471;}.cls-19,.cls-38{stroke:#823521;}.cls-20{fill:#ea7663;}.cls-21{fill:#75261b;}.cls-22{stroke:#93452a;}.cls-23,.cls-24{stroke:#0e7289;}.cls-25{fill:#be5c32;}.cls-26{fill:#ffb985;}.cls-27{stroke:#c66d32;}.cls-28{fill:#0a6270;}.cls-29,.cls-43{stroke:#0a505b;}.cls-30{stroke:#661d18;}.cls-31{fill:#a83b1a;}.cls-32{fill:#330d0b;}.cls-33{stroke:#330d0b;}.cls-34{fill:#f0a768;}.cls-35{fill:#e28f50;}.cls-36{fill:#cc4e42;}.cls-37{fill:#d15346;}.cls-38,.cls-39,.cls-40{stroke-width:1.42px;}.cls-39,.cls-45{stroke:#6d2920;}.cls-40,.cls-41{stroke:#c93f2d;}.cls-42{stroke:#a32a21;}.cls-44{fill:#bf5526;}.cls-46{fill:#cd6a35;}.cls-47{fill:#7f2c21;}.cls-48{fill:#72261c;}</style></defs><g id="BACKGROUND"><rect class="cls-1" width="1389.45" height="500"/></g><g id="OBJECTS"><ellipse class="cls-2" cx="210.94" cy="423.94" rx="159.37" ry="12.55"/><rect class="cls-3" x="101.32" y="362.52" width="209.57" height="58.12"/><path class="cls-4" d="M322.79,417.87c-.52-.34,16.15-1.49,25.8-.91a12,12,0,0,0,10.78-5.42l30.2-46.23a5.1,5.1,0,0,0-1.38-7l-2.86-2a13.2,13.2,0,0,0-16.43,1.18q-4.74,4.37-9.56,8.66a32.69,32.69,0,0,1-7.25,5.32c-9.79,4.73-28,3.56-28,3.56"/><path class="cls-5" d="M371.37,358a15.82,15.82,0,0,1,9-2.34"/><path class="cls-6" d="M324.33,399.23c2.61,2.56,7,1.18,10.12-.73,13.35-8.2,21.47-24,20.92-39.6a2.42,2.42,0,0,1,4.35-1.52c.43.57.78,1.06,1,1.38a22.13,22.13,0,0,1,3.64,8.1c4.21,19.43-11.05,52.83-37.62,56"/><path class="cls-7" d="M359.15,361.25a43.69,43.69,0,0,1-4.72,35.44"/><path class="cls-8" d="M238.11,376c-.16,10.58-1.64,32.54-2.35,42.56a5.58,5.58,0,0,1-5.57,5.18H213.37c-1.1-14.09,7.2-12.42,7.7-14.53,1.09-4.52-.25-59.4-.44-64.5l-3.46-1.49L209.68,420a5.58,5.58,0,0,1-5.56,5H185.58c-1.22-13.21,9.22-12.65,10-15,1.47-4.36.62-14.2,1-18.8A127.88,127.88,0,0,0,197,376L187.46,282A253,253,0,0,1,191,243.28l2.62-43.77a19.88,19.88,0,0,1,13.22-18.06,26.92,26.92,0,0,1,19.78.42,26.25,26.25,0,0,1,13.71,14.25c2,5.07,2.26,7.81,3.92,13,4.58,14.28,7.64,28.85,15.11,42,9.22,16.25,23.68,28.64,35.17,43.29,28.76,36.63,43.42,83.74,37.05,130.16l-88.11,1.21a17.43,17.43,0,0,1-4.68-5.45c-1-2.19-.95-5.07.8-6.73a8.18,8.18,0,0,1,2.58-1.48A68,68,0,0,1,260,407.47Z"/><path class="cls-6" d="M200.16,184.54c3.08,2.64,1.39,10.91.42,16.45-1.44,8.22-2.64,16.7-4.55,24.83a108.53,108.53,0,0,1-6.19,18.6,16.08,16.08,0,0,1-1.84,3.26c-3.27,4.3-7.35,4.91-11.14,3.57-6.09-2.17-9.21-8.86-7.71-15.14C173.8,216.59,186.07,198.93,200.16,184.54Z"/><path class="cls-9" d="M216.27,423.27a15.86,15.86,0,0,1,.23-5.32"/><path class="cls-9" d="M220.21,423.27a8,8,0,0,1,.39-4"/><path class="cls-9" d="M188.24,424.59l.49-4.84"/><path class="cls-9" d="M192.31,424.65a9.73,9.73,0,0,1,.36-4.42"/><path class="cls-9" d="M240.86,422.38a40.92,40.92,0,0,1,3.57-6.14"/><path class="cls-9" d="M244.28,423.66a9.65,9.65,0,0,1,4.15-4.68"/><path class="cls-6" d="M233.07,186c8.18,8.07,21.12,20.51,30.89,26.57,3.55,2.2,7.3,4.36,9.73,7.77A14.59,14.59,0,0,1,275.27,234c-.13.32-.27.63-.42.94-3.24,6.48-11.68,8.35-17.69,4.3s-12.36-15.21-15-22.09A234.33,234.33,0,0,1,233.07,186Z"/><path class="cls-10" d="M262.87,215.32a15.27,15.27,0,0,1,8.6,15.77"/><path class="cls-9" d="M303.11,383.68c.65,2,1.29,4,1.94,5.95"/><path class="cls-9" d="M308,379q1.55,6.3,3.1,12.6"/><path class="cls-9" d="M220.61,409.85l5.75-.67"/><path class="cls-9" d="M193.84,411.94a9,9,0,0,1,4.78-1"/><path class="cls-6" d="M315.4,327.52c-9.48,3.09-22-1.56-27.58-9.85-5.85-8.7-5.61-22.41,0-31.26C300.67,297.3,309.11,311.9,315.4,327.52Z"/><path class="cls-6" d="M323,345.64c-5.07.81-9.92-3-12-7.69s-1.61-10.15-.26-15.11c.24-.86.84-2.33,1.16-3.17C316.72,328.09,320.36,338.12,323,345.64Z"/><path class="cls-10" d="M308.84,315.44q5,11,9.16,22.37"/><path class="cls-9" d="M254.75,309.94a11.24,11.24,0,0,0,2.54,4.7"/><path class="cls-9" d="M258.29,310.34c.67,1.43,1.34,2.85,2,4.28"/><path class="cls-11" d="M227.22,218.47c-.1,2,1.38,4,3,4.09s3.08-1.67,2.94-3.65"/><path class="cls-11" d="M208.62,216.74c-.21,1.95-2,3.7-3.62,3.56s-2.79-2.13-2.34-4.06"/><path class="cls-9" d="M208.93,196.16a4.08,4.08,0,1,0,7.42-.6l-1.61-.08a5.34,5.34,0,1,0,5.91-3.41c1.07,3.94,7.22,5.14,9.69,1.89"/><path class="cls-12" d="M224.18,250.06a12.94,12.94,0,0,1-2.06,6.1c-1.58,2.25-4.43,3.78-7.11,3.16s-4.59-3.21-5.19-5.92a16,16,0,0,1-.09-5.56,3.36,3.36,0,0,0,2.27-.19,16.13,16.13,0,0,0,4-2.25,9.07,9.07,0,0,0,1.89-2.16c.32.7.7,1.41,1,2.11a9.7,9.7,0,0,0,1.22,2.15A9,9,0,0,0,224.18,250.06Z"/><path class="cls-9" d="M218,242.88s.68-4.68.45-4.35"/><path class="cls-9" d="M209.5,248.08a9,9,0,0,0,8.55-5.48c.82,4.29,2.93,6.65,6.11,7.64"/><path class="cls-9" d="M216.71,250l1.47-6.18"/><path class="cls-4" d="M213.65,227a6.32,6.32,0,0,0-4.1,2.63,5.16,5.16,0,0,0-.23,5.44c.89,1.49,2.94,2.58,4.48,3.27,3.44,1.52,8.15,1.94,11.58.11a5.88,5.88,0,0,0,3.3-5.66C227.88,226.9,218.12,226,213.65,227Z"/><path class="cls-5" d="M216.56,229.05a35.51,35.51,0,0,1,6.31,1"/><circle class="cls-6" cx="231.09" cy="242.76" r="0.77"/><path class="cls-6" d="M226.25,242.76a.77.77,0,1,1-.77-.77A.77.77,0,0,1,226.25,242.76Z"/><path class="cls-6" d="M228.45,246.73a.77.77,0,1,1-1.54,0,.77.77,0,1,1,1.54,0Z"/><path class="cls-6" d="M205.33,240.12a.77.77,0,0,1-1.54,0,.77.77,0,0,1,1.54,0Z"/><circle class="cls-6" cx="209.41" cy="241.33" r="0.77"/><path class="cls-6" d="M206.55,244.52a.78.78,0,1,1-.78-.77A.77.77,0,0,1,206.55,244.52Z"/><path class="cls-13" d="M87.49,213.48,101,179.58c2.6-6.56,5.23-13.16,9.09-19.05s9.08-11.12,15.6-13.79"/><path class="cls-14" d="M199.75,190.09c-3.77,24.06-11.32,34.09-14.34,51.35a213.35,213.35,0,0,1-29.11-8.22c10.33-18.66,23.52-35,38.29-50.4"/><path class="cls-14" d="M125.86,205.21c.47,8.61-2.23,12.46-.1,20.82-1.83,1.07-36.17-9.54-35.67-11,.31-.89,6.39-14.09,9.54-27.18C109.52,189.91,117.4,199.68,125.86,205.21Z"/><path class="cls-13" d="M177.93,236.16q1.26-6,2.54-11.91"/><path class="cls-13" d="M93,215.93a208.86,208.86,0,0,0,8.06-24.74"/><path class="cls-8" d="M122.57,217.34c-20.37,5.17-34.33,13.11-43.08,27.49C55.53,284.15,50.25,305.28,45,344l-.43,10.76c9.9,2,26.35.89,34.48.83,18.38-.14,80.64,11.29,84.82-6.75.61-2.63,14.26,1.85,16.29-8.37,1.19-6,10.89-79.07,9.24-85-1.91-6.86-17.18-26.75-23.49-30s-14-5-21-6.5C137.53,217.43,129.87,215.49,122.57,217.34Z"/><path class="cls-15" d="M188.36,252.32q-1.91,15.94-3.8,31.91"/><path class="cls-15" d="M117.17,219.83a29.62,29.62,0,0,0,16.17,24.07c5.87,2.87,12.88,3.66,19,1.41s11.13-7.76,12.07-14.22"/><path class="cls-15" d="M90.93,241.35c17.95-6.84,38.54,14.58,55.3,37.52l-36.54,30.37c-2.92-3.59-8.25-8.54-11-12.32-5.19-7.11-11.28-14.86-13.61-23.35"/><path class="cls-15" d="M105,301.7q17.16-13.8,33.53-28.56"/><path class="cls-15" d="M111,296.92l5.76,6.13"/><path class="cls-15" d="M118.13,292.46c1.4,2,2.8,3.91,4.21,5.86"/><path class="cls-15" d="M124.17,287.27l4.82,4.87"/><path class="cls-15" d="M130.49,280.58a17.4,17.4,0,0,0,5,6.38"/><path class="cls-15" d="M135.22,276.22l4.75,5.37"/><path class="cls-15" d="M104,236a119.37,119.37,0,0,1,16.15,13.53"/><path class="cls-15" d="M45.89,346.79c28.19-9.37,60.26-16.25,89.06-23.57"/><path class="cls-15" d="M169.35,289.47a223.49,223.49,0,0,0,2-57.24"/><path class="cls-15" d="M117,320.62a124.14,124.14,0,0,1,16,.95"/><path class="cls-16" d="M125.42,212c-1.18,3.18-2.22,7.49-2,6.36a15.67,15.67,0,0,0,2.05,12.18,23.93,23.93,0,0,0,10.56,8.21c8.64,3.55,19.71-.91,23.48-9.46"/><path class="cls-4" d="M254.31,401.15c0-.62,10.08,12.71,14.88,21.1a12,12,0,0,0,10.43,6.06h55.23a5.11,5.11,0,0,0,5.1-5l.08-3.47a13.21,13.21,0,0,0-10-13.11q-6.26-1.58-12.48-3.26a32.87,32.87,0,0,1-8.42-3.16c-9.31-5.61-18.3-21.51-18.3-21.51"/><path class="cls-14" d="M149.14,137.32c-.62,3.86-4.07,8.44-6.33,11.63-8,11.34-21.29,20.48-33.29,27.5,2.15-12.88,6.77-18.61,13.21-25.92S138.58,138.64,149.14,137.32Z"/><path class="cls-5" d="M329,409.38a15.28,15.28,0,0,1,6.56,8.62"/><path class="cls-12" d="M254.31,401.15c-1.84-2.82-31.74-40.63-34.56-44.36-12.2,3.91-60.55,55.42-89.78,69.57-5.8,2.8-25.53,4.44-30.83,3.37-16.18-3.29-31.2-12.37-40.52-26-6.5-9.46-10-34.61-10-49.41L131,331c11-5.87,65.32-31,74.66-31.48s18.94,1.06,27.14,5.56c29,15.88,58.06,73.72,58.06,73.72Z"/><path class="cls-17" d="M64.78,351.07c3.34,10.92,5.6,26,14,33.74s20.23,12.34,31.42,10c7.58-1.56,14.19-6,20.58-10.37l52-35.45c12.82-8.74,35.66-20,42.72-15.17,3.6,2.45,26.7,31.65,37.92,46"/><path class="cls-17" d="M60.37,352.39c3.34,10.92,6.45,30.63,14.82,38.4s20.23,12.34,31.41,10c7.58-1.56,17.75-4.07,24.14-8.43l52-35.45c12.82-8.74,35.66-20,42.72-15.17,3.42,2.33,22.42,26.78,33,40.53"/><path class="cls-17" d="M109.65,350.6a314.67,314.67,0,0,1,31.4-24.74"/><path class="cls-17" d="M246.42,389.62a7.79,7.79,0,0,1,2.51-1.86,185.58,185.58,0,0,0,34-22.42"/><path class="cls-18" d="M234.28,300.44c-14.73,10.92-35.34,20.3-52,28-5.67,2.62-22.81,2.61-29,2.75s-11.53-5.14-17.14-7.89c-1.88-.91-11.08-8.12-21.56-17.57l29.4-24.27c5.55,5.55,10.21,10.65,13.32,14.29,22.1-2.67,35.64-7,63.37-20.39Z"/><path class="cls-18" d="M213.16,312.41c7.77-4.4,15.3-8.84,22.38-13.27L219.63,278,198.86,288.4"/><path class="cls-18" d="M216,281.61c1.85-2.81,5.85-9.84,7.69-12.65,1.5-2.27,3.11-4.65,5.56-5.83l.08,0c3.37-1.56,6.44,2.4,4.54,5.58-3.65,6.12-6.72,11.66-10,16.61"/><path class="cls-18" d="M219.15,279c4-2.13,3.07-1.09,7.06-3.18,1.36-.72,10-5.72,11.49-6,4.56-.92,6.66,3.27,9.65,6.83a36.1,36.1,0,0,1,4.34,6.82c1.59,3.18.18,8.4-2.88,10.2-7.08,4.17-15.14,7.13-22.13,10.82"/><path class="cls-18" d="M230,274.54l19.17-12c1.73-1.08,3.58-2.19,5.62-2.15s4.61,2.68,4.25,4.68c-.3,1.64-2,2.78-3.37,3.77q-9.72,7.22-20,13.54"/><path class="cls-18" d="M238.11,280.43l19.17-11.95c1.73-1.08,3.59-2.2,5.62-2.16s4.17,1.79,3.81,3.79a6.86,6.86,0,0,1-2.71,4.13c-6.48,4.81-13.84,9-20.72,13.18"/><path class="cls-18" d="M237.25,290l20.31-9.9c1.83-.9,3.79-1.81,5.81-1.56s4,2.21,3.39,4.16c-.46,1.6-2.31,2.55-3.74,3.4q-10.42,6.17-21.35,11.38"/><path class="cls-19" d="M243.09,275.79c2-.56,14.19-7.31,14.19-7.31"/><path class="cls-19" d="M247.94,284.16c5.16-3.56,10.94-6.51,16.06-10.8"/><path class="cls-18" d="M279.29,266.89c-1.11,2.3-5.2,2.63-9.15.73s-6.24-5.3-5.14-7.6,5.2-2.63,9.15-.73S280.39,264.59,279.29,266.89Z"/><path class="cls-18" d="M285.43,266.42c1.22,2.62-2.53,6.94-8.37,9.66s-11.55,2.79-12.77.17,2.53-6.94,8.37-9.65S284.21,263.8,285.43,266.42Z"/><path class="cls-18" d="M292.67,272.45c1.22,2.62-2.53,6.94-8.37,9.66s-11.56,2.79-12.77.17,2.52-6.94,8.36-9.65S291.45,269.83,292.67,272.45Z"/><path class="cls-18" d="M296.69,279.29c1.22,2.61-2.53,6.93-8.37,9.65s-11.56,2.79-12.77.18,2.53-6.94,8.36-9.66S295.47,276.67,296.69,279.29Z"/><path class="cls-19" d="M271.89,277.87l13.38-7.53"/><path class="cls-19" d="M276.89,284.44a63.62,63.62,0,0,1,14.17-7.37"/><ellipse class="cls-18" cx="154.52" cy="184.4" rx="45.5" ry="45.81"/><circle class="cls-20" cx="124.49" cy="190.32" r="8.75"/><circle class="cls-20" cx="181.5" cy="209.47" r="8.75"/><path class="cls-19" d="M154.27,200.79a4.72,4.72,0,0,0,6-1.61c1.13-2,0-4.69-2.45-6.14"/><path class="cls-8" d="M148.13,190.27a4.17,4.17,0,1,1-2.38-5.17A4,4,0,0,1,148.13,190.27Z"/><path class="cls-21" d="M148.09,190.37a3.77,3.77,0,0,1-.48.84,4.12,4.12,0,0,1-4.39,1.24l-.06,0a3.91,3.91,0,0,1-.55-4.26c.78-1.92,2.56-3,4-2.55.06,0-.05,0,0,0A3.89,3.89,0,0,1,148.09,190.37Z"/><path class="cls-8" d="M175,199a4.17,4.17,0,1,1-2.64-5.05A4,4,0,0,1,175,199Z"/><path class="cls-21" d="M174.91,199.1a3.84,3.84,0,0,1-.43.86,4.13,4.13,0,0,1-4.32,1.46l-.06,0a3.88,3.88,0,0,1-.77-4.23c.68-2,2.41-3.15,3.91-2.75h0A3.9,3.9,0,0,1,174.91,199.1Z"/><path class="cls-19" d="M170.61,188.19a9.25,9.25,0,0,1,6.54,3.2"/><path class="cls-19" d="M143.59,179.58a7,7,0,0,1,7.35,2.31"/><path class="cls-19" d="M146.21,201.38c2,5.45,9.28,8.2,14.43,5.51"/><path class="cls-18" d="M109.58,192.59c-6.83,1.26-12.92-5.73-13.41-12.65a13.21,13.21,0,0,1,1.45-7.4c3.18-5.61,12.22-6.5,16.43-1.62"/><path class="cls-22" d="M101.6,174.37c2.14-2.55,8-2.49,10.16,1.09"/><circle class="cls-8" cx="103.08" cy="187.29" r="1.76"/><path class="cls-14" d="M162.73,141.51a16.43,16.43,0,0,1-14.37-21.67c3.37-9.9,16-14.32,26-11.39A25.46,25.46,0,0,1,189,119.57a22,22,0,0,1,2.06,18.13c-1.41,4.1-4.09,7.63-6.89,10.94a8.26,8.26,0,0,1-3.23,2.68,3,3,0,0,1-3.69-1.14"/><path class="cls-13" d="M159.89,138.05c-3.45-4.57-3.14-11.16-.65-16.31s5.48-11.06,13-13"/><path class="cls-13" d="M179.43,111.74a26.68,26.68,0,0,1-1.56,31"/><path class="cls-13" d="M166.9,140.67A32.63,32.63,0,0,1,176.84,110"/><path class="cls-23" d="M155.37,137.62a14.23,14.23,0,0,1-3-26,28.8,28.8,0,0,1,5.93-2.3c3.82-1.17,7.91-2.34,11.76-1.25"/><path class="cls-23" d="M173.93,109.7a11.67,11.67,0,0,1,7.53,1.12c8.09,3.65,14,12.12,13.9,21s-6.54,17.51-15.21,19.45"/><path class="cls-14" d="M190.7,153.83A60.32,60.32,0,0,0,193.34,196c1.32,3,3.19,5.84,3.74,7.27C203.13,191.91,205,171.44,190.7,153.83Z"/><path class="cls-14" d="M115.63,163.29c8,7.9,27.08,9.47,39,5.73,10.69-3.37,20.71-14.52,23.28-25.43-9-6.21-21.59-8.45-32.3-6.28S121.48,154.07,115.63,163.29Z"/><path class="cls-14" d="M201.23,176.68c-4.91,4.13-3.17,14.62-9.32,12.81-13.54-4-23.14-19.23-26.64-26.56a34,34,0,0,1-1.43-24.79c6.75.32,13.13,3.41,18.71,7.21a55.48,55.48,0,0,1,10.84,9.74C199.19,162,199.69,167.78,201.23,176.68Z"/><path class="cls-14" d="M152.39,136.66c-28.18-5.73-42.7,18.05-45.41,31a27.09,27.09,0,0,0,9,2.77c3.63-6.1,8.54-13.13,12.38-19.1C130.79,147.5,148.63,139.24,152.39,136.66Z"/><path class="cls-14" d="M190.91,187.19c-5.45,18.24-7.55,33.91-8.14,52.93a5.1,5.1,0,0,0,3.52,1.36c2.38-16.64,12.9-31.71,12.68-48.52"/><path class="cls-24" d="M125,167.91a29.41,29.41,0,0,0,44.74-12.32"/><path class="cls-24" d="M165.36,159.36c1.06,7.79,3.76,15.58,9.07,21.37S188,190,195.64,188.28"/><path class="cls-13" d="M193.84,188.62q-3.48,17.07-7,34.13c-.87,4.28-1.75,8.61-1.5,13"/><path class="cls-14" d="M128.84,159.94c-4.27,16.52-13.76,39.07-21.29,54.38-1.76-1.1-3.83-2.78-5.6-3.87,3.16-17.55,11-50.9,11-50.9"/><path class="cls-24" d="M113.89,209.22a370.69,370.69,0,0,0,15.35-49.73"/><path class="cls-13" d="M105.6,217.62q9.2-23.91,16.77-48.41"/><path class="cls-13" d="M102.36,218.38q7.4-23.77,13.12-48"/><path class="cls-13" d="M165.08,163.49l4.56-17.57"/><path class="cls-13" d="M166.65,157.25a43.15,43.15,0,0,0,26.92,30.22"/><path class="cls-13" d="M168.46,151.63c6.24,11.15,19.4,17.2,31.48,21.35"/><path class="cls-13" d="M170.21,146.09a93.74,93.74,0,0,0,29.29,24.69"/><path class="cls-13" d="M166.45,158.64c-3.25,3.62-8.46,4.56-13.27,5.29-7.11,1.09-14.28,2.16-21.47,1.89s-14.49-2-20.43-6.06"/><path class="cls-13" d="M167,158.66a223.53,223.53,0,0,1-23.26,1.67c-9.47.19-19.92-.62-26.65-7.28"/><path class="cls-13" d="M169.2,145.83a42.45,42.45,0,0,1-31.95-5.19c-.67-.41-1.42-1.08-1.2-1.84"/><ellipse class="cls-2" cx="636" cy="428.34" rx="159.37" ry="12.55"/><path class="cls-25" d="M638.69,225.11c-2.39,33.48-3.32,67.48-5.71,101-7.79-2.74-18.88-2.93-26.67-5.67.93-30.44,7.07-60.59,7.36-91C620,226.65,632,223.67,638.69,225.11Z"/><path class="cls-26" d="M639.59,241.81,626,238.11c-5.66-1.54-11.88-3.47-14.88-8.52,5.19-13.87,9.1-27.64,16.84-40.27a36.74,36.74,0,0,1,5.74-7.64c3.45-3.27,7.93-5.19,12.39-6.81a140.09,140.09,0,0,1,29.37-7.22"/><path class="cls-27" d="M614.65,223.41c2.63,3.6,4.27,5,8.5,6.37"/><path class="cls-28" d="M563.72,418.32c-8.09,3.78-32.61,1.79-37.65-27.41-1.65-9.57.08-22,5.62-29,8.89-11.2,23.41-19.85,34.68-28.38,7.35-5.56,37.18-27,44.78-29.61,13-4.39,39.66,6.17,52.71,10.52C632.68,348,605.19,398.93,563.72,418.32Z"/><path class="cls-14" d="M738.39,315c-.41,14-4.95,32.95-13.2,44.25-4.19,5.72-10.35,10.56-14.53,12.32-15.95,6.72-43.15,12.55-42.27,12.77l-2-2.64c15-.88,64.5-5.5,64.5-5.5l-.43,54.15c-16.56,4.56-129.67,5.28-144.06,5.69-9.79.28-20.29-7.51-28.18-18.2-4.81-6.52.41-30.46,6.06-35.89a593.43,593.43,0,0,1,54.8-46.72,448.47,448.47,0,0,0,47.45-40.57"/><path class="cls-29" d="M643.43,384.43l42.85-5.19"/><path class="cls-29" d="M712.12,431.19q.48-26,1-51.95"/><path class="cls-29" d="M689.52,387.61a206.05,206.05,0,0,0,38.4-3.46"/><path class="cls-8" d="M730.69,392c5.06-1.33,9-2,13.66-5,4.15-2.68,7.47-5.15,12.35-4.41s9.23,3.69,12.5,7.39c10.67,12.07,20.95,14.55,36.56,18.58,6.82,1.76,7.51,9.24,5.27,12s-6,3.79-9.53,4.4A174.47,174.47,0,0,1,765.25,427c-11.22-.44-23.78,0-35-.44"/><path class="cls-27" d="M746.32,386.62c4.43,8.36,17.57,11.52,25.75,6.77"/><path class="cls-27" d="M797.08,424.56c2.06-4.37,5.46-11.12,7.52-15.48"/><path class="cls-27" d="M736.73,391.57q.51,17.51,1,35"/><path class="cls-26" d="M741,324.87c-11.31,6.18-51.93,2.43-95.54-8.14-14.53-3.52-20.7-7.05-28-13.65,1.4-22.46,1.53-51.06,9.57-86.18,7.27-31.7,36.62-47.91,41.28-49,6.34-1.46,11.05-3.36,17.55-3s13.09-.71,17.7,3.89c2.88,2.88.5.47,4.37,1.72,6.71,2.16,31.24,8.52,35.34,22.89,1.93,6.78-1.93,21.37-2.31,28.4"/><path class="cls-27" d="M659.7,172.3c.51,4.88,4.09,9.08,8.46,11.31s9.44,2.73,14.35,2.5a53.19,53.19,0,0,0,31.65-12.47"/><path class="cls-27" d="M622.82,237.37c2.82-17,6.61-35.49,11.94-51.9"/><path class="cls-27" d="M651.33,242.28a45.39,45.39,0,0,0,7.53,13.48"/><path class="cls-27" d="M652.52,222.52l17.11,31.74"/><path class="cls-25" d="M715.93,122.41c2.38-4.67,10-4.61,13.23-.52s2.58,10.37-.46,14.64-7.91,6.87-12.82,8.72"/><path class="cls-30" d="M717.66,124.89a6.82,6.82,0,0,1,8.63,2.73"/><path class="cls-25" d="M638.13,106.82c2.87-12,9.33-19.09,21.19-23.42,17.93-6.53,38.38.24,50,15a53.24,53.24,0,0,1,9.24,19c1.61,5.89,2.4,12,1.37,18-3.88,22.39-28,34.55-50.74,31.94C639.34,164,631.34,135.17,638.13,106.82Z"/><path class="cls-25" d="M705.76,143.93c.37,4.1,1.88,22.75,2.25,26.85-8.51,6.3-24.28,9.07-34.34,5.72a11.78,11.78,0,0,1-6.22-6.16,159.43,159.43,0,0,0,1.27-17.75"/><circle class="cls-31" cx="689.08" cy="135.39" r="8.75"/><path class="cls-31" d="M642.58,135.39a8.73,8.73,0,0,1-3.8,7.21l-.28.18a55,55,0,0,1-2-9c-.58-4.8-.65-6.88-.65-6.88h0A8.76,8.76,0,0,1,642.58,135.39Z"/><path class="cls-30" d="M658.9,122.81l-1.63,2.38a17.71,17.71,0,0,0-2.73,5.09,5.66,5.66,0,0,0,1,5.36,5.25,5.25,0,0,0,5.88,1.22"/><path class="cls-30" d="M643.31,123.91a5.5,5.5,0,0,0,.34,2.66,3,3,0,0,0,2.53,1.66A3.34,3.34,0,0,0,649,126.9a5.71,5.71,0,0,0,.9-2.57"/><path class="cls-30" d="M670.13,123.91a5.74,5.74,0,0,0,.33,2.66,3,3,0,0,0,2.46,1.66,3.24,3.24,0,0,0,2.76-1.33,6,6,0,0,0,.87-2.57"/><path class="cls-30" d="M668.06,167c5.61-.21,13.05-.65,17.83-3.6"/><path class="cls-30" d="M651.38,141.59a11.12,11.12,0,0,0,18-1.66"/><path class="cls-32" d="M688.64,81.4C691,90,698,102.5,702,110.41s9.48,21.05,17.36,25.14c4.27-17,9.7-35.77-2.42-47.65-4.09-4-12.51-7.88-21.83-6.54C693.12,81.64,691,81.27,688.64,81.4Z"/><path class="cls-32" d="M704.27,93.68c.64,1.31-3.38,5.62-4.23,6.47a18,18,0,0,1-7.5,4.67,9.41,9.41,0,0,1-7.9-.91c-2.62-1.71-4.65-5.44-2.22-8.22-1.71,2-2.8,4.33-4.65,6.2-4.8,4.84-12.67,8.21-19.51,6.47-3.74-.94-4.4-3.85-3.4-7.27-1.54,5.29-11.94,6.76-16.08,4.8-8.58-4.08-1.58-18,2.6-22.94,8.09-9.61,23.06-11.79,35.16-8.38C684.67,76.86,696,76.64,704.27,93.68Z"/><path class="cls-32" d="M696.81,101A25.08,25.08,0,0,0,702,118.1c1.61,2.06,3.79,4,6.41,4.07,2.46.1,4.88-1.46,7.28-.9"/><path class="cls-33" d="M654.28,101a29.34,29.34,0,0,1-10.89,5.09c-3.2.75-6.92.83-9.4-1.33a9.16,9.16,0,0,1-2.72-5.61c-1-6.91,2.7-13.83,7.88-18.52,11.2-10.11,36.51-9.12,55.44,1.45"/><path class="cls-33" d="M697.23,100.05c-.59,4.25-1.29,11.79.29,15.78,1,2.57,2.61,5.1,5.12,6.26,3.16,1.46,6.94.36,10-1.35"/><path class="cls-33" d="M694.37,81.93c6.23-2.28,13.78-3.29,19.28,1.25,10.21,8.44,10.21,31.57,5.59,45.44"/><path class="cls-33" d="M655.1,101.58a4.22,4.22,0,0,0,.78,4.56,8.51,8.51,0,0,0,4.23,2.38,18.27,18.27,0,0,0,23-14.61"/><path class="cls-33" d="M640.32,106a10.78,10.78,0,0,1-9.3-8.5,23.49,23.49,0,0,1,3.75-18.67c7.3-10.18,24.66-9.42,36.7-6s19.34,8.36,28.77,16.6"/><path class="cls-32" d="M636.47,102.76c-1.56,9.44-3.42,17.16-.66,26.41,1-10.85,3.35-17,7.83-27.19"/><path class="cls-34" d="M570.52,367.2a206.32,206.32,0,0,0,10.73,21.06c9.14,15.63,24.92,29.47,36.79,43.17,3.42,3.95,7.07,8.05,12,9.83,2.92-1,4.93-5.82,4.15-8.8s-2.95-5.37-5.06-7.62a83.83,83.83,0,0,1-15.69-23.19c-3.87-8.66-11.83-24.2-15.69-32.86"/><path class="cls-35" d="M561,389.59c.2,14.32-1.18,39.81-.22,41.83,3.19,6.66,8.41,9,15.63,7.48,1.12-6.56.52-7.09-3.3-12.54,2.32-8,5.53-29.35,7.84-37.31"/><path class="cls-35" d="M528.07,383.68q-.65,6.38-1.3,12.75c-.62,6.08-.95,17.84,3.26,22.56,1.24,1.39,2.82,1,4.37,2.14s2.51,1.81,1.43,7.92a64.24,64.24,0,0,1-10.27.18,9.65,9.65,0,0,1-8.89-7.3c-2.83-12.92-9.64-44.18-11.14-52.37"/><path class="cls-34" d="M603.17,376.47A180.07,180.07,0,0,0,627,354c6.71-7.54-44-36-44-36-8.26,5.61-17.25,6.36-26.89,3.85-13.88-3.61-25.08-12.57-40.54-11.51-14.52,1-29.85,10-36,22.41-12.37,24.77,2.77,50.65,5.59,75.62.44,3.95,1.79,10.45,2.92,15.56a11.15,11.15,0,0,0,9.55,8.35c1.85.26,3.79.52,5.8.68,3,.25,5.7-1.75,5.92-4.47.18-2.17-1.16-3.25-7-4.6-.59-.14-2.44-20.56-1.56-25.32,2.54-13.6,2.62-9,10.46-18.93h0c20.18,9.56,44.74,17.46,67,10.71C586.49,387.87,595.11,382.68,603.17,376.47Z"/><path class="cls-34" d="M633,336.6c1.17,15.27-13.32,27.73-29.75,27.73s-29.74-12.41-29.74-27.73c0-6.15-1.72-9.64,2.58-13.63,6.5-6,17.37-15,27.16-14.1C616.85,310.16,632.14,325.86,633,336.6Z"/><path class="cls-34" d="M628.54,350.21a86.12,86.12,0,0,0,13.24-10.53c1.71-1.66,3.48-4.08,2.4-6.2-.8-1.56-2.75-2.06-4.47-2.4l-9.84-1.93"/><path class="cls-36" d="M631.44,334.24l5.49.72c.94.13,2.11.47,2.2,1.41a1.94,1.94,0,0,1-.57,1.37,12.6,12.6,0,0,1-5.66,4"/><path class="cls-34" d="M591.74,319.16a98.58,98.58,0,0,1,9.74-16.63c1.59-2.19,4-4.58,6.6-3.7,1.89.64,2.77,2.76,3.43,4.64q1.89,5.4,3.77,10.79"/><path class="cls-36" d="M601.58,309.74l2.56-4.92c.43-.83,1.15-1.81,2.07-1.59a2,2,0,0,1,1.09,1,12.54,12.54,0,0,1,1.84,6.69"/><path class="cls-34" d="M478.41,338.74c4.58-19.45,12.56-38.68,28.76-50.38,7.62-5.5,16.15-9.72,23.41-15.68,8.86-7.26,9.56-13.33,13.21-24.19,1.32-8.81,6.2-18.56,12.1-21s13.05-.42,17.65,4,6.9,10.85,7.44,17.21c1.83,21.71-28.75,37.25-47.31,48.67S495.62,325.38,478.41,338.74Z"/><path class="cls-9" d="M578.68,318.05a60,60,0,0,0,11.78,10.13"/><path class="cls-9" d="M583.64,313.21a99.43,99.43,0,0,0,9.68,13.65"/><path class="cls-9" d="M613.74,352.57a139.21,139.21,0,0,0,8.33,18.27"/><path class="cls-9" d="M615.56,351.07c3,4,7.22,8.92,10.23,12.94"/><path class="cls-9" d="M601.59,341.93a26.93,26.93,0,0,1,3.57-3.26"/><path class="cls-37" d="M608,338.82c-.87-1-1.77-2-2.63-2.94a1.3,1.3,0,0,0-2.23.54c-.21.74-.41,1.51-.61,2.26a2,2,0,0,0,2.14,2.55l2.47-.23A1.31,1.31,0,0,0,608,338.82Z"/><path class="cls-9" d="M601.78,341.6a2.75,2.75,0,0,0,2.77,4"/><path class="cls-9" d="M597.92,337.58a3.2,3.2,0,0,0,4,3.78"/><circle class="cls-6" cx="600.59" cy="328.84" r="1.76"/><circle class="cls-6" cx="614.57" cy="343.59" r="1.76"/><path class="cls-9" d="M567,327.6l5.27-.78"/><path class="cls-9" d="M501.31,428.23c.85,1.72,1,2,.82,3.91"/><path class="cls-9" d="M505,427.51a9.88,9.88,0,0,1,1.45,4.24"/><path class="cls-9" d="M530.38,424.25a4.92,4.92,0,0,1,1.14,4.56"/><path class="cls-9" d="M534.06,423.57a9.36,9.36,0,0,1,1.26,5.07"/><path class="cls-9" d="M569.39,433.83l.81,5"/><path class="cls-9" d="M573.27,433.85c.61,2,.85,2.76,1.45,4.72"/><path class="cls-9" d="M630.76,433.51a9.21,9.21,0,0,1-.23,7.27"/><path class="cls-9" d="M505.26,386.27a31.68,31.68,0,0,0,13-21.3"/><path class="cls-9" d="M482.4,326.06a54.09,54.09,0,0,1,31.66-15.84"/><path class="cls-9" d="M512.37,380.68c7.92,3.14,15.78,6.33,24,8.86"/><path class="cls-9" d="M576.15,379.13a120.13,120.13,0,0,0,7.43,12.19"/><path class="cls-6" d="M580,258.06c-1.18,2.16-5,2.81-7.31,1.93a9.5,9.5,0,0,1-4.94-5.23c-.46-1-.78-2.3-.1-3.19,1.45-.23,2.47,1.48,2.6,3,.29,3.25-1.49,6.33-3.57,8.84a6.3,6.3,0,0,1-2.35,2,4.79,4.79,0,0,1-3.45-.13c-3.75-1.43-5.67-5.53-6.92-9.34a5.85,5.85,0,0,1-.3-4c.54-1.28,2.44-2,3.33-.94a6.82,6.82,0,0,1-6.66,6.33,7.51,7.51,0,0,1-7.06-6.16c-.68-4.09.81-8.21,2.24-12,1.78-4.68,4.08-9.82,8.68-12.34a13.91,13.91,0,0,1,9.68-1.17c7.46,1.65,13,7.52,15.49,14.56C581.24,245.47,582.89,252.78,580,258.06Z"/><path class="cls-6" d="M561.4,323c-4.35,6-15.08,12-21.84,8.85s-10.5-12.18-8.75-19.41C543.07,315.91,552.38,320.8,561.4,323Z"/><path class="cls-6" d="M482.6,394.66c4.89-4.74,9.72-11.74,10.28-18.53A28.53,28.53,0,0,0,475,347.66C473.65,364.58,478.52,386.29,482.6,394.66Z"/><path class="cls-6" d="M475.63,361.86c-3.18-12.59,1.65-27.25,6.53-36.49,8,10.05,8.23,25.91-.6,35.23"/><path class="cls-6" d="M563.24,371.16c.49,4.38-2.47,8.26-11.09,8.69-7,.35-16.59-2.86-17.42-11.1-.77-7.52,5.55-10.7,12-10.83C555,357.77,562.56,365,563.24,371.16Z"/><path class="cls-9" d="M601.38,399.1a13,13,0,0,0,2.3,3.48"/><path class="cls-9" d="M604.54,397.3a10.61,10.61,0,0,0,2.21,4.84"/><path class="cls-9" d="M517.8,288.51a25.8,25.8,0,0,0,4.5-2.94"/><path class="cls-9" d="M522.28,289.53l4.83-3.11"/><path class="cls-9" d="M486.77,401.81l.66,5.29"/><path class="cls-9" d="M489.73,403.79a24.7,24.7,0,0,0,.71,5.61"/><path class="cls-9" d="M569.66,329.53l4.29-.42"/><path class="cls-9" d="M509.87,314.89l4.32-1.24"/><path class="cls-9" d="M627.29,434.73a9.32,9.32,0,0,1-.38,4.29"/><path class="cls-25" d="M656.5,316.51c18.13-3.92,48.65-10.35,55.26-20.25,4.38-6.58,1.72-24.15,2.42-34.34,1.85-26.86,4-39.17,7-65.92,1.72-14.92,22.58-3.92,27.42,2.26,11.06,14.14,11.74,31.36,12.09,48.35.39,18.62,2.86,59.05-8.44,73.86-10.69,14-22.45,12.77-40.06,16.07-11.74,2.2-43,7.71-68.19,5.78"/><path class="cls-25" d="M677.86,341.82a138.8,138.8,0,0,1-26-.62l5.19-25.92,23.21.34"/><path class="cls-25" d="M661.89,317c-2.88-1.73-9.54-6.34-12.42-8.07-2.33-1.4-4.81-2.85-7.53-2.84h-.09c-3.7.06-4.76,4.95-1.67,7,5.94,3.93,11.11,7.6,16.22,10.63"/><path class="cls-25" d="M658,316c-4.51-.19-3.24.35-7.75.2-1.54-.06-11.48-.83-13-.46-4.5,1.15-4.57,5.84-5.73,10.34a36.21,36.21,0,0,0-1,8c0,3.56,3.48,7.65,7,7.94,8.19.69,16.74-.14,24.63.16"/><path class="cls-25" d="M646.27,316.61l-22.46-2.47c-2-.22-4.18-.42-6,.5s-3,4.42-1.79,6.06c1,1.35,3,1.63,4.67,1.94q11.88,2.28,23.94,3.51"/><path class="cls-25" d="M641.48,325.46,619,323c-2-.22-4.18-.42-6,.5s-3,3.41-1.78,5.06a6.85,6.85,0,0,0,4.23,2.55c7.92,1.52,16.35,2.08,24.38,2.89"/><path class="cls-25" d="M646.42,333.74l-22.59-.12c-2,0-4.2,0-5.92,1.11s-2.61,3.71-1.25,5.23c1.12,1.24,3.19,1.29,4.85,1.44q12.06,1,24.17,1"/><path class="cls-26" d="M763.49,259.82c-21.45,9-41.69-.91-64.51-5.37,3.25-19.36,5-37.59,8.27-56.94.79-4.74,1.72-9.76,4.92-13.34,4.53-5.08,2.61-6.85,9.38-6.24,4.46.4,4.37.49,8.59,2C746,185.53,756,201,758.87,213.6S763.16,250.58,763.49,259.82Z"/><path class="cls-27" d="M711.24,256l.35-12.23c.29-10.35.59-20.78,2.83-30.89s6.56-20,13.89-27.33"/><path class="cls-27" d="M712.31,247.94c9.37,2.29,17.22,3.3,26.78,4.58,7.87,1.06,16,1.74,23.6-.71"/><path class="cls-27" d="M715.89,204.9a46.14,46.14,0,0,1,7.84-22.11"/><path class="cls-27" d="M758.79,258.57l-1.65-20.19"/><ellipse class="cls-2" cx="1134.64" cy="425.92" rx="200.76" ry="9.25"/><path class="cls-34" d="M1141.43,245.42A44.33,44.33,0,0,0,1144,263a16.65,16.65,0,0,0,1.85,3.82,10,10,0,0,0,7.4,4.16c7,.46,14.36,1.5,21.19-.17s44.34-15,47-16.15L1246,204.46c-6.83-2.19-17.94-.77-28.51,5.83-6.08,3.8-38,16.51-44.25,18.16-1.85-16.5-3.31-77.28-4.29-79.9s-7.84-4.45-10.57-5.07-6.92,1.55-8.36,4c-3.59,6.05-8.29,6.32-8.21,13.36Z"/><path class="cls-34" d="M1141.84,160.8c-.15-9.84-.82-17.74-1.56-27.56-.14-1.78.71-4.31,3.28-4.61a4.82,4.82,0,0,1,4.86,2.16,11.52,11.52,0,0,1,1.07,5.21c.31,7.17,1.18,14.56.83,21.72"/><path class="cls-34" d="M1151.42,145.66q-.06-8.58-.11-17.16a12.48,12.48,0,0,1,.47-4.31,4.26,4.26,0,0,1,3-2.89,4.2,4.2,0,0,1,4.12,2.14,10.35,10.35,0,0,1,1.19,4.75c.46,7.28-1,14.64,0,21.87"/><path class="cls-34" d="M1161.77,151.58q0-6.89,0-13.77a53.38,53.38,0,0,1,.67-8.77c.75-4.47,8.11-6.08,8.45,4.27s.24,22.39.12,32.89"/><path class="cls-34" d="M1169.94,161.52a22.61,22.61,0,0,1,5.67-5.58,5,5,0,0,1,2.82-.86c2.19.16,3.55,2.7,3.3,4.88s-1.62,4-2.9,5.83c-3.68,5.16-7.26,11.28-10.63,16.14"/><path class="cls-8" d="M1247.83,203.42a51.37,51.37,0,0,0-27.42,3.37c-4.69,2-19.1,7.06-21.46,8.67A423,423,0,0,0,1208.6,263c3.14-.72,12.29-3.14,14.33-3.48,5-.85,10.09-1.71,15.17-2.3C1238.16,238.08,1241.47,221.49,1247.83,203.42Z"/><path class="cls-15" d="M1205.09,213.3a371.54,371.54,0,0,0,10.69,47.54"/><path class="cls-34" d="M1303.7,220.75c-4-4.62-27.29-16.29-27.29-16.29l1.54-18.93-33.4,7.26c0,5.5-.72,8.13-.72,13.64-5.14,8.27-10.74,15.67-16.12,23.78,3.2,2.82,7.12,4.63,11,6.4l31,14.18a3.13,3.13,0,0,0,4.83-1.58C1281.91,238.09,1296.29,231.87,1303.7,220.75Z"/><path class="cls-34" d="M1295.12,146.56c0,22.66-6.5,40.16-26.5,45.37-21.77,5.68-52.9,15.56-50-38.14,1.73-31.95,18.24-41,40.74-41S1295.12,123.91,1295.12,146.56Z"/><path class="cls-34" d="M1219.61,153.45c-.72,1.39-6.91,7.46-9.73,10.85a3.14,3.14,0,0,0,1,4.82c3.25,1.64,9.84,2.9,11.68,3.25"/><path class="cls-38" d="M1262.07,163.37a5.68,5.68,0,0,1,10.53,2.57"/><path class="cls-39" d="M1223.87,157.14c-.33,1.93-.06,3.59,1.54,4s2.62-1.6,3-3.37"/><path class="cls-39" d="M1221.29,180c2.92,1.19,4.77-.12,6.37-2.84"/><path class="cls-39" d="M1243.38,196.31a49,49,0,0,0,10.15-1.45"/><path class="cls-3" d="M1230.74,109.17a27.14,27.14,0,0,0-7,2.8,15.53,15.53,0,0,0-7.85,16.66,20.91,20.91,0,0,0,11.68,14.62c2.33,1,17.1,2.88,17.55-1.46-.88,8.57,6.43,15.92,14.45,19.06,1.25-1,2-2.2,3.46-2.92,2.27-1.14,4.88-2,7.34-1.31a8.08,8.08,0,0,1,5.6,6.77,12.09,12.09,0,0,1-2.61,8.69,16.2,16.2,0,0,1-2.72,2.83c-1.51,1.22,8.12,11.86,10.34,11.62,5-.55,9.79-8.94,11.87-12.73a53.6,53.6,0,0,0,6.95-21.66c.57-7.62-2.46-21.15-7.39-27-14.36-17-33.07-12.39-35.28-13.12C1248.62,109.2,1239.44,107,1230.74,109.17Z"/><path class="cls-3" d="M1276.85,125.87c.4-6.17.73-15.61,3.52-21.13s8.57-10.59,14.51-12.28c9.35-2.66,19.91,3.35,23.61,12.33s1.08,19.84-5.32,27.15c-4.89,5.59-13.12,5-20.47,6"/><path class="cls-40" d="M1247.76,139.1c-1.76,2-5.46,6.05-8.1,6.35-4.37.49-8.85,1-13.1-.15A18.28,18.28,0,0,1,1214,133.16a18.47,18.47,0,0,1,3.63-17.13c4.4-5.12,11.61-7.46,18.31-6.57a27.18,27.18,0,0,1,17.1,10"/><path class="cls-40" d="M1245.05,140.82a15.21,15.21,0,0,0,5,16.87c3,2.31,7.77,3.19,10.5.51"/><path class="cls-41" d="M1280.81,129.61c-3.34-7.75-3.53-17.92-1.14-25.94,3-10,12.91-13.91,22.34-10.42a20.46,20.46,0,0,1,6,3.45,20.82,20.82,0,0,1,7.29,17"/><path class="cls-40" d="M1217.14,131.26c-.63-6.1-1.13-12.74,2.22-17.87a17.6,17.6,0,0,1,4.36-4.46,25.65,25.65,0,0,1,37.84,8.42"/><path class="cls-42" d="M1310.56,96.3a15.06,15.06,0,0,0-10,.79,27.77,27.77,0,0,0-8.34,5.79c-5.46,5.24-9.83,12.43-9.06,20"/><path class="cls-42" d="M1311.18,97.08c2.8,6.83,1.65,14.86-1.91,21.32s-9.29,11.5-15.54,15.41c-.15.09-.34.18-.47.07s.1-.37.16-.21"/><path class="cls-42" d="M1288.18,127.46A109.67,109.67,0,0,1,1309,96.78c.36-.38.94-.77,1.35-.44"/><path class="cls-42" d="M1293.56,133.59c5.11-.3,10.61-.74,14.54-4a17.49,17.49,0,0,0,2.9-3.23,31.32,31.32,0,0,0,5.59-13.91"/><path class="cls-40" d="M1240.15,144.9c-7.78,1.5-16.32.43-22.69-4.27s-10-13.44-7.43-20.94,12-12.28,19.07-8.8"/><path class="cls-42" d="M1282.31,122.11a21.08,21.08,0,0,1,5.59-21.73"/><path class="cls-42" d="M1217.63,132.18c2.09-4.54,4.57-9,8.15-12.47a26,26,0,0,1,29-4.42"/><path class="cls-42" d="M1228,142a21.35,21.35,0,0,1,25.08-19.21"/><path class="cls-42" d="M1222,138.41a16.38,16.38,0,0,1,6.94-12.7"/><path class="cls-42" d="M1283.4,124.11c-11.16,6.56-25.27,15.68-23.8,36.74"/><path class="cls-42" d="M1292.81,133.54A51.06,51.06,0,0,1,1279,182.85"/><path class="cls-42" d="M1288.18,128.73c1.17,6.83.53,16.19-1,22.79-2.18,9.48-6.45,18.68-15.71,23.74"/><path class="cls-42" d="M1243.94,143.59c-1-8,7.43-13.4,13.65-16.3,8.58-4,16.61-4.66,26-3.84"/><path class="cls-42" d="M1253.51,118.83c9.2-6.6,25.76.66,28.4,2"/><path class="cls-42" d="M1291.58,130.46a98.51,98.51,0,0,0,12.83-19.87"/><path class="cls-42" d="M1286.35,126.13a93.92,93.92,0,0,1-10.73,32.15"/><path class="cls-33" d="M1277.29,113.76a46.71,46.71,0,0,0,21.57,23.78"/><path class="cls-33" d="M1269.83,102.43a4.83,4.83,0,0,1,.38-3.67c1.19-1.72,4-1.38,5.46.16s1.75,3.77,1.91,5.85c.21,2.81.72,6.68-.47,9.16C1272.94,113.26,1270.53,106.08,1269.83,102.43Z"/><path class="cls-33" d="M1283.31,104.32a9.38,9.38,0,0,1,3.21-2,4.28,4.28,0,0,1,3.68.34c1.79,1.2,1.93,4,.83,5.82s-3.08,3-5,3.93a19,19,0,0,1-2.93,1.16c-1.78.5-4.5,1.29-6.27,1.18C1276,111.46,1281.1,106.29,1283.31,104.32Z"/><path class="cls-33" d="M1277.14,114.15a12.87,12.87,0,0,0,.89,10.13"/><path class="cls-33" d="M1267.65,109.56a10.44,10.44,0,0,0,9.65,5.26"/><path class="cls-41" d="M1300.47,136.41a15,15,0,0,0,11.69-2.06,25,25,0,0,0,8.13-9,24.46,24.46,0,0,0,2.42-5.55,19.07,19.07,0,0,0-10-21.75"/><path class="cls-41" d="M1281.27,186.17a30.71,30.71,0,0,0,18.52-18.35,35.9,35.9,0,0,0-1-26.3"/><path class="cls-8" d="M1243.3,205.44c5.77,4.45,13.8,4,21,3.37,4.37-.39,9.21-1,12.05-4.36,3.53,1.55,17.08,6.41,22.46,9.48-9.31,8-16.84,22.43-23.51,32.76a2.67,2.67,0,0,1-1.49,1.34,2.75,2.75,0,0,1-1.81-.41,210.31,210.31,0,0,0-47.27-16C1229,222.44,1237.41,213.67,1243.3,205.44Z"/><path class="cls-15" d="M1241.44,211.73a40.23,40.23,0,0,0,34.83-1.88"/><path class="cls-14" d="M1241.62,309.24c-.55-.41-37.5-24.77-44.45-28.94-6.52-3.9-19.56-5.61-26.58-2.72-4.46,1.85-14.56,6.72-15.7,11.41-5.37,22.07,1.12,42.11,10.13,63,6.27,14.53,9,18.25,15.41,33.46,8.8-9,19.09-14.38,28-20.91,14.46-10.66,27.13-21.42,44.72-30.62Zm-31.62,52q-5.09-12.5-9.62-25.21c9.26,4.82,17.65,7.27,26.91,12.09Z"/><path class="cls-14" d="M1297.54,366.48c11.37-8.54,15.71-19.72,16.93-33.89s-1.52-28.35-4.16-42.32a383,383,0,0,0-10.59-42.34l-37.4-9.57a283.46,283.46,0,0,1-34.15-11.1l-2.73.53a126,126,0,0,0-5.11,12.72,29.14,29.14,0,0,0-1.49,7.76c-.29,3.52,1.12,12.22,1.82,15.68,1.4,7,3.27,8.45,4.67,15.41.38,1.87,5.29,22.84,5.29,22.84a206.81,206.81,0,0,0,21.58,31c-4,1.13-7.65,3.35-11.21,5.54-5,3.08-34.77,16.73-42.7,22.68-6.27,4.7-13.84,8.48-18.3,15.18-3.55,5.35-.73,14.58,2.29,20.18,2.84,5.28,7.77,10.76,13.47,12.95,7.62,2.91,16.15.77,24-1.51Q1242,401.7,1263.91,394a85.1,85.1,0,0,1,2.26-17.11C1272.77,374.16,1291.85,370.76,1297.54,366.48Z"/><path class="cls-14" d="M1222.47,235.06c2.19.91,7.5-4.31,9.69-3.39,3.74-9.66,7.24-19.58,11.94-28.81l-8.95-.81C1231.52,210.7,1225,227.13,1222.47,235.06Z"/><path class="cls-14" d="M1269.86,244.63c1.65-6.43,5.72-14.39,10.13-20.37s16.12-12,16.12-12l-10.4-4.21a5.41,5.41,0,0,0-2.94,1.71c-11.62,10-19.8,24-23.81,38.83"/><path class="cls-29" d="M1177.54,377c7.47-9.33,53.52-32.11,71.13-46.2"/><path class="cls-43" d="M1254.17,275c1.15-9.24,4.16-19.87,8.59-28.06a178.1,178.1,0,0,1-31.33-10.21,61.94,61.94,0,0,0-5.84,25.84"/><path class="cls-43" d="M1262.32,238.33a36.4,36.4,0,0,1,8.86,2.08"/><line class="cls-43" x1="1225.78" y1="226.43" x2="1233.04" y2="229.11"/><path class="cls-43" d="M1191.38,332.94a102.07,102.07,0,0,0,12.6,5.14"/><path class="cls-43" d="M1286.48,312.77a57,57,0,0,1,16.56-1.72"/><path class="cls-43" d="M1285.36,312.71a101,101,0,0,0,13.62,5.84"/><path class="cls-43" d="M1239.31,385.31l26.4-7.68"/><path class="cls-43" d="M1190.48,394.69a23,23,0,0,0,4.46,6.58"/><path class="cls-43" d="M1193.19,387.62l7,13.23"/><path class="cls-4" d="M1187.25,399.94c-3.75,1.67-8.73,4.39-13.61,7.09a14,14,0,0,0-5.83,18.28h0c10.64.39,43.42-.46,59.81-2.63a5.18,5.18,0,0,0,4.21-7c-1.46-3.68-3.48-7.37-4.43-10.9"/><path class="cls-4" d="M1295.58,365.43a24.86,24.86,0,0,0,7.94,1.64,2.28,2.28,0,0,1,2.13,2.31l-.26,15.67a2.28,2.28,0,0,1-2.27,2.24h0a2.89,2.89,0,0,0-2.77,2.13c-1.43,5.16-5.31,14-8.41,20.66a15.79,15.79,0,0,1-14.14,9.13l-12.22.14L1263.4,416a9.32,9.32,0,0,1,3.07-13.12l0,0a4.19,4.19,0,0,0,.12-7.08c-1.77-1.17-3.28-2.16-3.11-2,.74-5.58,2.33-17.62,2.33-17.62Z"/><circle class="cls-20" cx="1240.73" cy="166.09" r="7.09"/><path class="cls-34" d="M1220.93,266.54c8.52,3.4,27.27,18.45,36.14,20.78a3.59,3.59,0,0,0,2.77,0,2.35,2.35,0,0,0,.83-.91,17.46,17.46,0,0,0,2.1-4.93l6.77-29.85c1.63-7.17,3.3-14.45,6.94-20.84s12.48-16.23,19.63-14.51c5.5,1.32,4.54,1.9,7.15,3.85,9.8,7.32,9,19.14,7.06,30.06a168.28,168.28,0,0,1-26.57,65.67,19.53,19.53,0,0,1-18.87,8.39,61.79,61.79,0,0,1-8.38-1.73c-12.72-3.64-51.72-36.33-51.42-37.45,0,0-2.76-7.85,2.86-13.87C1213.19,265.56,1220.93,266.54,1220.93,266.54Z"/><path class="cls-8" d="M1274.45,233.58c6-13.72,15.56-26.07,28.81-17.89A30.77,30.77,0,0,1,1316,232.63c2.14,6.84,2.61,14.08,3.06,21.23.53,8.18-1.8,16.83-1.28,25,.16,2.43-49.89-6.48-54.59-9.25,0,0,2.47-7.19,3.88-13.31A134.29,134.29,0,0,1,1274.45,233.58Z"/><path class="cls-15" d="M1266.89,259.92c3,2,6.71,2.64,10.3,3.2,12.57,1.95,29.15,6.94,40.16,6.5"/><path class="cls-15" d="M1312.44,278.42q1.2-12.94,1.15-26"/><path class="cls-44" d="M1103.1,271.35a62.92,62.92,0,0,0,21.37-1,18.59,18.59,0,0,0,13.7-12.68c7.21-23.45,17.67-54.5,20.42-76.41l4.28-22c.66-3.4-7.54-7.47-11-7a18.37,18.37,0,0,0-3.11.71,83.41,83.41,0,0,0-10,21.54c-5.35,18.57-16.26,39.3-25.15,56.45a53.11,53.11,0,0,1-23.9,2.88"/><path class="cls-45" d="M1155.3,163.07a8,8,0,0,1,5.26-6.77"/><path class="cls-45" d="M1148.71,160.87a11.63,11.63,0,0,1,4.39-7.08"/><path class="cls-45" d="M1129.23,236.35c1.12.36,3.46-7.87,3.46-7.87"/><line class="cls-45" x1="1135.03" y1="234.38" x2="1139.35" y2="224.57"/><path class="cls-46" d="M948.9,408.27a84.88,84.88,0,0,1-48.5-17.19,3.21,3.21,0,0,0-4.92,3.79c3.66,8.09,11.11,13.73,20.93,18.1,7.32,3.26,35.08,12.95,54,9.86"/><path class="cls-46" d="M1083.13,359c-3.8,8.15-13.87,16.06-22.35,21.26a169.79,169.79,0,0,1-28.33,13.16l-.34.05c.21,1.57.45,3.11.76,4.62.87,4.16.76,5.5,3.59,8.67,3.32,3.73,10.42,4.13,15.4,4.13,6,0,12.87-1.36,17.3,2.68,3.21,2.93,3.85,7.81,3.07,12.08-15.39.42-33.58,2-49,2.39-25.3.69-51.84,1.11-74.33-10.5l-3.75,1.16c-4-8.74-2.35-19.71-1.34-29,3-27.7,23.71-46.63,41-66.46a193.32,193.32,0,0,0,42.52-83.39q.39-1.71.75-3.42c1.61-7.76,3.34-15.49,5.44-23.13,1.39-5.07,2.76-10.34,5.7-14.74,3.09-4.63,7.72-8,12.4-11,6.31-4.09,7.83-6.09,15.33-5.8a28.81,28.81,0,0,1,7.48,1.33l15.8,4.93c5.41,1.68,14.8-.51,22-1.61a4.82,4.82,0,0,1,5.54,4.53c.1,1.83.14,3.65.06,5.48a9.14,9.14,0,0,1-3.27,6.54c-3.92,3.31-8,7.25-12.65,10.13-3.76,2.35-9.72,6.45-11.47,10.51-1.43,3.35,11.33,29.94,15,42.27,5.16,17.14,6.52,28.42,5.52,44-.65,10.08-1.42,17.59-1.46,34.14,0,17-1.1,42.19,4.54,68.06,3.09,1,2.4.39,5.5,1.36a7.91,7.91,0,0,1,3.72,1.95c1.24,1.39,1.33,3.43,1.36,5.29,0,1.57,0,3.13.07,4.69h-19.7a10.86,10.86,0,0,1-10.75-9.32c-3.39-23.58-11.24-57-11.24-57"/><path class="cls-45" d="M1004.56,355c8,3.52,15.36,8.88,20.33,16.12,4.74,6.89,5.67,14.53,7,22.39.27,1.61.55,3.22.89,4.84"/><path class="cls-47" d="M1060.11,190.27a27.15,27.15,0,0,0-9,4,7.74,7.74,0,0,0-3.31,6.9c.6,8.61,3.06,15.8,6.59,24.12.54,1.28,1.66,1.4,2.51.29a58,58,0,0,0,10.66-22.76,4.52,4.52,0,0,0-.08-2.25l-2-7.08A4.54,4.54,0,0,0,1060.11,190.27Z"/><path class="cls-48" d="M1112.81,186.49a29.34,29.34,0,0,1,4.46-.7,1.18,1.18,0,0,1,.79.13c.34.23.35.72.32,1.13a23.45,23.45,0,0,1-.58,3.63,1,1,0,0,1-.34.63c-.4.25-.88-.17-1.16-.55l-2.91-3.82"/><path class="cls-45" d="M1081.17,199.89a7.61,7.61,0,0,0,3.1.44,2,2,0,0,0,1.66-2.69,3.7,3.7,0,0,0-2-1.79"/><path class="cls-45" d="M1094.07,206.84a62.08,62.08,0,0,0,23.55-11.43"/><path class="cls-45" d="M1080,338q2.89,13.16,4.77,26.51"/><path class="cls-45" d="M1067.43,417.16a10.75,10.75,0,0,1,1.49,7.9"/><path class="cls-45" d="M1063.83,421.28c.27,1.32.53,2.65.79,4"/><path class="cls-45" d="M1120.8,417.54a15.13,15.13,0,0,1,1.29,7.06"/><path class="cls-45" d="M1116.79,420.42a40.42,40.42,0,0,0,.82,4.63"/><path class="cls-45" d="M1017.09,285.25l5.22-11.26"/><path class="cls-45" d="M1024.28,280.59q3-6.9,6-13.81"/><path class="cls-45" d="M946.2,403.39c.91-2.85,1.83-5.7,2.74-8.55"/><path class="cls-45" d="M952.36,400.16l2.76-9.21"/><path class="cls-45" d="M1102.83,282.61l.87,13.2"/><path class="cls-45" d="M1109.11,293.23a28.38,28.38,0,0,0-.5,10.55"/></g></svg>